<?xml version="1.0" encoding="UTF-8"?>
<svg width="775px" height="799px" viewBox="0 0 775 799" version="1.1" xmlns="http://www.w3.org/2000/svg" xmlns:xlink="http://www.w3.org/1999/xlink">
    <title>TreeOneOneWhite</title>
    <g id="TreeOneOneWhite" stroke="none" stroke-width="1" fill="none" fill-rule="evenodd">
        <path d="M507,711 L507,704.557081 C496.318352,704.324904 489.235955,703.33815 485.752809,701.596821 C482.269663,699.855491 479.976592,697.359586 478.873596,694.109104 C477.770599,690.858622 477.219101,682.616329 477.219101,669.382225 L477.219101,669.382225 L477.219101,470 L471.47191,470 L414,498.035405 L416.61236,503.433526 C424.275281,499.834778 430.254682,498.035405 434.550562,498.035405 C437.569288,498.035405 440.152622,498.906069 442.300562,500.647399 C444.448502,502.388728 445.928839,505.116811 446.741573,508.831647 C447.902622,513.70737 448.483146,524.73579 448.483146,541.916908 L448.483146,541.916908 L448.483146,669.382225 C448.483146,683.545039 447.844569,692.048531 446.567416,694.892702 C445.290262,697.736874 443.026217,700.000602 439.775281,701.683887 C436.524345,703.367172 429.325843,704.324904 418.179775,704.557081 L418.179775,704.557081 L418.179775,711 L507,711 Z M672,711 L672,704.557081 C661.318352,704.324904 654.235955,703.33815 650.752809,701.596821 C647.269663,699.855491 644.976592,697.359586 643.873596,694.109104 C642.770599,690.858622 642.219101,682.616329 642.219101,669.382225 L642.219101,470 L636.47191,470 L579,498.035405 L581.61236,503.433526 C589.275281,499.834778 595.254682,498.035405 599.550562,498.035405 C602.569288,498.035405 605.152622,498.906069 607.300562,500.647399 C609.448502,502.388728 610.928839,505.116811 611.741573,508.831647 C612.902622,513.70737 613.483146,524.73579 613.483146,541.916908 L613.48241,670.208805 C613.457858,683.876333 612.819527,692.104299 611.567416,694.892702 C610.290262,697.736874 608.026217,700.000602 604.775281,701.683887 C601.524345,703.367172 594.325843,704.324904 583.179775,704.557081 L583.179775,704.557081 L583.179775,711 L672,711 Z" id="11" fill="#FFFFFF" fill-rule="nonzero"></path>
        <g id="Group-2" transform="translate(85.331571, 99.316285)" fill="#FFFFFF">
            <path d="M246.718647,0.683714813 C274.573904,0.683714813 290.639197,19.2700887 294.914526,56.4428365 C315.368629,58.8410344 330.351209,63.7989928 339.862265,71.3167119 C349.373322,78.834431 353.238532,93.3624611 351.457896,114.900802 C385.46367,126.740326 402.466558,139.78526 402.466558,154.035604 C402.466558,168.285948 392.349768,180.390536 372.116189,190.349368 C406.982801,222.560952 422.675543,248.683637 419.194415,268.717424 C413.972724,298.768105 378.36294,315.554228 351.457896,320.488205 C333.5212,323.777522 314.67341,322.132863 294.914526,315.554228 L294.914526,315.554228 L222.902743,401.90071 L222.902743,556.876041 C222.177291,573.121161 224.030467,585.724564 228.462272,594.686251 C230.544252,598.896285 239.518654,602.180118 255.38548,604.53775 L255.38548,604.53775 L255.38548,610.683715 L171.489011,610.683715 L171.489011,604.53775 C181.74545,604.940299 188.509253,602.566291 191.780418,597.415728 C195.051584,592.265164 196.710855,585.956493 196.758232,578.489715 L196.758232,578.489715 L191.780418,363.92083 L124.387202,308.962091 C115.162688,316.646167 99.3939425,320.488205 77.0809656,320.488205 C43.6115002,320.488205 0.668429274,288.131467 0.668429274,259.182695 C0.668429274,239.883513 15.0698576,221.663521 43.8727142,204.522717 C34.870295,204.522717 30.3690853,196.482443 30.3690853,180.401896 C30.3690853,164.321348 38.5235055,155.532584 54.8323457,154.035604 C44.5831659,140.353254 44.5831659,127.30832 54.8323457,114.900802 C65.0815256,102.493284 80.0224625,94.7584646 99.6551565,91.6963447 C87.2531694,81.8056719 87.2531694,67.5679501 99.6551565,48.9831791 C112.057144,30.3984081 136.001762,23.7617111 171.489011,29.0730882 C193.786845,10.1468393 218.86339,0.683714813 246.718647,0.683714813 Z M237.631593,287.164365 C230.748377,287.164365 220.536319,293.337482 206.995421,305.683715 C211.353815,342.03413 215.950925,361.417122 220.786751,363.832691 C225.622577,366.248261 243.58045,347.95806 274.66037,308.962091 C256.857736,294.430274 244.51481,287.164365 237.631593,287.164365 Z M150.21398,282.834367 C143.330763,282.834367 136.265738,288.028297 129.018904,298.416157 C167.94909,325.327159 188.814577,340.691615 191.615365,344.509527 C191.901813,344.9 195.605567,344.217233 195.465393,330.884441 C195.433352,327.836871 194.150009,320.529421 191.615365,308.962091 C170.897658,291.543608 157.097196,282.834367 150.21398,282.834367 Z" id="Combined-Shape"></path>
        </g>
    </g>
</svg>